# xmcd CD database file
#
# Track frame offsets:
#	150
#	16412
#	27337
#	43122
#	55040
#	65647
#	77280
#	90152
#	105367
#	116285
#	127112
#	139107
#
# Disc length: 1977 seconds
#
# Revision: 0
# Processed by: cddbd v1.5PL3 Copyright (c) Steve Scherf et al.
# Submitted via: CDex 1.51
#
DISCID=8e07b70c
DTITLE=James Burton - The Guitar Sounds Of James Burton
DYEAR=1971
DGENRE=Rock and Roll
TTITLE0=Polk Salad Annie
TTITLE1=Suzie-Q
TTITLE2=Fire And Rain
TTITLE3=Fools Rush In
TTITLE4=Johnny B Goode
TTITLE5=I Know(You Don't Want Me No More)
TTITLE6=Delta Lady
TTITLE7=Mystery Train
TTITLE8=Rock And Raunch
TTITLE9=Hound Dog
TTITLE10=Hi-Heel Sneakers
TTITLE11=Long Reach
EXTD=YEAR: 1971
EXTT0=
EXTT1=
EXTT2=
EXTT3=
EXTT4=
EXTT5=
EXTT6=
EXTT7=
EXTT8=
EXTT9=
EXTT10=
EXTT11=
PLAYORDER=
